<svg xmlns="http://www.w3.org/2000/svg" width="415.612" height="41.729" viewBox="1294 974 415.612 41.729"><g data-name="Component 3 – 1"><path d="M1621.04 974.974h8.276v39.272h-8.276v-39.272z" fill="#244ac2" fill-rule="evenodd" data-name="Rectangle 9"/><path d="M1294 990.546h39.988v8.128H1294v-8.128z" fill="#244ac2" fill-rule="evenodd" data-name="Rectangle 10"/><path d="M1428.613 974.974v8.245l29.531 12.013-29.531 12.013v8.246l39.668-16.135.114.046V991.063l-.116.046-39.666-16.135Z" fill="#244ac2" fill-rule="evenodd" data-name="Path 2"/><path d="m1497.005 974.974 16.073 39.07h8.192l-16.073-39.07h-8.192Z" fill="#244ac2" fill-rule="evenodd" data-name="Path 3"/><path d="M1374.294 974v7.876c7.104 1.748 11.42 8.822 9.64 15.799-1.19 4.66-4.895 8.3-9.64 9.467v7.877c10.304-1.563 17.908-10.271 17.911-20.51-.003-10.24-7.607-18.947-17.911-20.509Z" fill="#244ac2" fill-rule="evenodd" data-name="Path 4"/><path d="M1560.713 1007.607c-4.746-1.168-8.453-4.808-9.641-9.47h-8.02c1.59 10.12 10.457 17.589 20.883 17.592 10.425-.004 19.29-7.472 20.881-17.592h-8.018c-1.78 6.978-8.981 11.217-16.085 9.47Z" fill="#244ac2" fill-rule="evenodd" data-name="Path 5"/><path d="M1685.514 975.215c-9.113 1.378-16.264 8.4-17.667 17.35h8.02c1.497-5.782 6.787-9.837 12.862-9.858 6.076.021 11.367 4.076 12.864 9.858h8.019c-1.776-11.326-12.565-19.095-24.098-17.35Z" fill="#244ac2" fill-rule="evenodd" data-name="Path 6"/></g></svg>