<svg xmlns="http://www.w3.org/2000/svg" width="230" height="54.996" viewBox="60 60 230 54.996"><g data-name="Visio_Logo_Black"><path d="M138.14 61.484v52.028h-10.736V61.484h10.737Zm31.775 53.234c6.384 0 11.288-1.755 14.573-5.218 2.827-2.915 4.51-7.665 4.51-12.713 0-2.686-.638-6.494-3.679-9.386-1.895-1.827-4.498-2.97-7.029-3.932l-4.01-1.529c-.738-.279-1.401-.521-2.001-.74-2.408-.88-3.861-1.41-5-2.482-.964-.87-1.46-2.073-1.46-3.566 0-1.49.584-2.93 1.6-3.95 1.674-1.867 4.104-2.087 5.784-2.087 3.058 0 6.01 1.157 8.791 3.439l4.646-7.563c-4.48-3.17-9.33-4.714-14.8-4.714-5.605 0-9.508 1.438-12.658 4.663-2.974 3.058-4.421 6.82-4.421 11.499 0 3.773.977 6.643 2.987 8.774 1.932 2.085 4.588 3.147 7.143 4.056l4.478 1.553c1.591.588 4.903 1.811 6.435 3.092 1.479 1.27 2.135 2.65 2.135 4.482 0 2.684-1.386 4.26-2.21 4.96-1.947 1.686-4.411 2.042-6.135 2.042-2.583 0-4.925-.67-7.16-2.05-1.308-.803-3.092-2.287-4.444-3.563l-5.46 7.528c1.891 1.803 4.694 4.003 7.159 5.239 2.988 1.498 6.142 2.166 10.226 2.166Zm36.762-53.234v52.028h10.738V61.484h-10.738ZM60 61.516l20.854 51.76H91.48l-20.854-51.76H60Zm36.62 41.81 16.378-41.81h-10.633L91.066 90.36l5.554 12.966Zm166.286-33.082c7.874 0 14.789 5.454 16.69 13.061H290C287.96 69.955 276.47 60 262.906 60c-13.563 0-25.053 9.956-27.094 23.305h10.405c1.9-7.607 8.816-13.06 16.69-13.06Zm0 44.752c13.563 0 25.054-9.956 27.094-23.306h-10.405c-1.9 7.607-8.815 13.061-16.689 13.061-7.873 0-14.788-5.454-16.689-13.06h-10.405c2.04 13.349 13.531 23.305 27.094 23.305Z" fill="#061c2c" fill-rule="evenodd" data-name="Path 1"/></g></svg>